<?xml version="1.0" encoding="iso-8859-1"?>
<!-- Generator: Adobe Illustrator 16.0.0, SVG Export Plug-In . SVG Version: 6.00 Build 0)  -->
<!DOCTYPE svg PUBLIC "-//W3C//DTD SVG 1.1//EN" "http://www.w3.org/Graphics/SVG/1.1/DTD/svg11.dtd">
<svg version="1.1" id="&#x30EC;&#x30A4;&#x30E4;&#x30FC;_1"
	 xmlns="http://www.w3.org/2000/svg" xmlns:xlink="http://www.w3.org/1999/xlink" x="0px" y="0px" width="500px" height="500px"
	 viewBox="0 0 500 500" style="enable-background:new 0 0 500 500;" xml:space="preserve">
<g>
	<rect style="fill:#89C685;" width="500" height="500"/>
	<polygon style="opacity:0.1;fill:#221714;" points="500,257.45 500,500 234.15,500 214.001,479.851 120.75,386.601 107,372.849 
		101.851,194.7 142,154.551 142.45,154.101 183.149,113.399 355.949,113.399 437.802,195.25 437.851,195.299 468.201,225.651 	"/>
	<g>
		<g>
			<path style="fill:#FFF9F7;" d="M437.802,195.25c-0.352-1.2-0.752-2.399-1.202-3.599s-0.9-2.35-1.449-3.5
				c-1-2.25-2.151-4.5-3.449-6.602c-1.953-3.198-4.15-6.199-6.603-8.999c-0.847-0.9-1.698-1.85-2.549-2.701
				c-6.999-7.05-15.697-12.35-25.447-15.299c-5.601-1.751-11.551-2.651-17.754-2.651c-5.546,0-10.898,0.751-15.949,2.102h-0.05
				l0.95-32.251l0.248-8.351H99.5l2.35,81.301L107,372.849l0.398,13.752h249.252l0.45-16.948v-0.054l2.846-98.499
				c6.104,2.002,12.604,3.101,19.352,3.101c6.501,0,12.699-0.999,18.551-2.85c1.252-0.4,2.503-0.851,3.701-1.351
				c1.197-0.4,2.398-0.949,3.547-1.499c0.054,0,0.054,0,0.054,0c1.549-0.751,3.098-1.549,4.547-2.403c0.054,0,0.054,0,0.054,0
				c1.495-0.847,2.949-1.797,4.349-2.746c1.4-1,2.8-1.999,4.101-3.102h0.05c1.499-1.301,2.949-2.598,4.299-3.948
				c1.4-1.403,2.751-2.852,3.948-4.353c2.503-2.998,4.65-6.249,6.604-9.699c0.05-0.05,0-0.05,0-0.05
				c4.65-8.701,7.348-18.6,7.348-29.15C440.449,206.85,439.549,200.901,437.802,195.25z M399.849,233.601
				c-1.297,1.299-2.7,2.449-4.249,3.55h-0.05c-4.65,3.099-10.25,4.949-16.251,4.949c-3.498,0-6.801-0.599-9.898-1.749
				c-3.052-1.101-5.898-2.75-8.4-4.751l1.301-46.099c0.599-0.401,1.201-0.851,1.851-1.202c0.648-0.349,1.297-0.75,1.949-1.099
				c1.999-1,4.101-1.801,6.352-2.35c1.449-0.4,2.948-0.65,4.497-0.751c0.801-0.049,1.599-0.099,2.399-0.099
				c8.003,0,15.251,3.25,20.554,8.551c1.297,1.299,2.449,2.699,3.498,4.25s1.949,3.201,2.697,5.001
				c0.351,0.849,0.701,1.749,0.953,2.649c0.848,2.699,1.297,5.6,1.297,8.6c0,5.049-1.247,9.749-3.498,13.849
				C403.549,229.4,401.848,231.649,399.849,233.601z"/>
			<g>
				<g>
					<path style="fill:#AA6940;" d="M225.534,266.525c-2.979,7.354-6.837,9.758-11.724,12.794
						c-5.034,3.129-11.213,6.974-15.661,16.403c-15.354-14.076-19.972-40.618-9.808-65.713
						c12.369-30.535,41.937-47.375,66.045-37.611c0.336,0.137,0.672,0.279,1,0.425c-2.979,7.342-6.834,9.739-11.717,12.773
						c-5.413,3.367-12.152,7.555-16.636,18.629c-4.486,11.072-2.562,18.77-1.017,24.954
						C227.413,254.761,228.514,259.171,225.534,266.525z"/>
				</g>
				<g>
					<path style="fill:#AA6940;" d="M275.643,265.365c-12.367,30.537-41.937,47.379-66.044,37.613
						c-0.34-0.138-0.673-0.278-1.001-0.424c2.979-7.343,6.834-9.742,11.717-12.775c5.413-3.368,12.152-7.557,16.636-18.631
						c4.486-11.07,2.562-18.77,1.017-24.954c-1.395-5.581-2.497-9.991,0.482-17.345c2.979-7.357,6.838-9.754,11.723-12.791
						c5.031-3.132,11.215-6.973,15.663-16.403C281.189,213.732,285.805,240.271,275.643,265.365z"/>
				</g>
			</g>
		</g>
		<path style="opacity:0.05;fill:#050001;" d="M437.851,195.299l-0.049-0.05c-0.352-1.2-0.752-2.399-1.202-3.599
			s-0.9-2.35-1.449-3.5c-1-2.3-2.151-4.5-3.449-6.602c-1.903-3.198-4.15-6.199-6.603-8.999c-0.847-0.9-1.698-1.85-2.549-2.701
			c-6.999-7.05-15.697-12.35-25.447-15.299c-5.601-1.751-11.551-2.651-17.754-2.651c-5.546,0-10.898,0.751-15.949,2.102l0.9-32.251
			l0.248-8.351H100.849L142,154.551l125.601,125.601l89.501,89.501l0.046,0.045l2.854-98.549c6.1,1.999,12.6,3.102,19.348,3.102
			c6.451,0,12.649-0.999,18.501-2.899c1.301-0.4,2.503-0.801,3.701-1.351c1.197-0.4,2.398-0.949,3.547-1.499
			c0.054,0,0.054,0,0.054,0c1.549-0.751,3.098-1.549,4.547-2.403c0.054,0,0.054,0,0.054,0c1.495-0.847,2.949-1.797,4.349-2.746
			c1.4-1,2.8-1.999,4.101-3.102h0.05c1.499-1.301,2.949-2.598,4.299-3.948c1.4-1.403,2.751-2.852,3.948-4.353
			c2.553-2.998,4.754-6.249,6.604-9.699c0.05-0.05,0-0.05,0-0.05c4.749-8.651,7.396-18.6,7.396-29.1
			C440.498,206.899,439.598,200.951,437.851,195.299z M404.85,226.9c-1.301,2.5-3.002,4.75-5.001,6.701
			c-1.297,1.351-2.746,2.55-4.249,3.55h-0.05c-4.65,3.2-10.2,5.001-16.201,5.001c-3.498,0-6.851-0.601-9.948-1.801
			c-3.098-1.051-5.898-2.701-8.4-4.702V235.6l1.351-46.049c0.599-0.4,1.198-0.801,1.801-1.251c0.648-0.349,1.297-0.75,1.949-1.099
			c1.999-1,4.101-1.801,6.352-2.35c1.449-0.4,2.948-0.65,4.497-0.751c0.801-0.049,1.599-0.099,2.399-0.099
			c8.003,0,15.251,3.25,20.554,8.551c1.297,1.299,2.449,2.699,3.498,4.25s1.949,3.201,2.697,5.001
			c0.351,0.849,0.701,1.749,0.953,2.649c0.9,2.749,1.351,5.649,1.351,8.65C408.401,218.1,407.101,222.799,404.85,226.9z"/>
	</g>
</g>
</svg>
