<svg xmlns="http://www.w3.org/2000/svg" xmlns:xlink="http://www.w3.org/1999/xlink" width="2524" height="2524" viewBox="0 0 2524 2524"><svg viewBox="0 0 512 512" width="512" height="512" id="adelivery-truck" x="0" y="0"><circle cx="256" cy="256" r="256" fill="#797b89"></circle><path d="M512 256H0c0-13.291 1.014-26.352 2.968-39.1a266.792 266.792 0 0 1 2.069-11.661c6.98-34.732 20.992-66.926 40.49-95.013A256.363 256.363 0 0 1 76.56 73.425a252.188 252.188 0 0 1 7.272-6.886C129.296 25.203 189.701 0 256 0c59.016 0 113.361 19.968 156.662 53.52a257.21 257.21 0 0 1 53.812 56.707 255.282 255.282 0 0 1 32.695 65.515C507.496 200.986 512 227.976 512 256z" fill="#78caef"></path><path fill="#279fc9" d="M471.064 278.835H295.973V147.723h135.261z"></path><path d="M481.687 241.601L444.343 149.4a24.115 24.115 0 0 0-22.35-15.057H275.822v257.975h196.901a253.338 253.338 0 0 0 10.898-19.048V251.496c0-3.385-.659-6.76-1.934-9.895zm-52.715 10.094H321.567c-10.156 0-18.38-8.234-18.38-18.38v-52.328c0-10.637 8.62-19.268 19.268-19.268H406.8a19.272 19.272 0 0 1 17.857 12.037l21.326 52.663c4.901 12.079-3.981 25.276-17.011 25.276z" fill="#ff525d"></path><path d="M275.811 106.82v285.497H39.278C14.388 352.852 0 306.103 0 256c0-13.291 1.014-26.352 2.968-39.1a266.792 266.792 0 0 1 2.069-11.661c6.98-34.732 20.992-66.926 40.49-95.013A256.363 256.363 0 0 1 76.56 73.425h165.846c18.453 0 33.405 14.952 33.405 33.395z" fill="#ffd15c"></path><path d="M487.215 366.017a243.783 243.783 0 0 1-8.14 15.653 241.4 241.4 0 0 1-6.353 10.647h-71.837c-64.366 0-7.408-19.372-10.313-26.791h93.048c1.244 0 2.446.167 3.595.491z" fill="#f9eed7"></path><path d="M479.075 381.67a241.4 241.4 0 0 1-6.353 10.647h-70.207V381.67h76.56z" fill="#e8dbc4"></path><path d="M395.254 392.318H275.82V172.635c.458 30.867 7.388 169.126 94.123 196.515 23.826 7.525 29.84 15.458 25.311 23.168z" fill="#ef4152"></path><path d="M197.089 392.317H39.278C14.388 352.852 0 306.103 0 256c0-13.291 1.014-26.352 2.968-39.1a266.792 266.792 0 0 1 2.069-11.661c30.897 82.536 88.377 175.417 192.052 187.078z" fill="#edbb4c"></path><circle cx="380.364" cy="392.474" r="59.695" fill="#5c5e70"></circle><circle cx="380.364" cy="392.474" r="34.544" fill="#e8dbc4"></circle><path d="M388.184 413.817c-16.102 0-29.159-13.057-29.159-29.159 0-11.696 6.881-21.783 16.807-26.423-16.943 2.215-30.014 16.696-30.014 34.233 0 19.085 15.471 34.555 34.556 34.555 17.538 0 32.018-13.07 34.233-30.014-4.64 9.927-14.727 16.808-26.423 16.808z" fill="#d6c8b0"></path><circle cx="456.485" cy="324.336" r="21.468" fill="#ffd15c"></circle><path d="M461.341 337.604c-10.006 0-18.12-8.114-18.12-18.12 0-7.268 4.276-13.536 10.444-16.419-10.528 1.376-18.65 10.375-18.65 21.273 0 11.86 9.613 21.473 21.473 21.473 10.898 0 19.896-8.121 21.273-18.65-2.883 6.167-9.151 10.443-16.42 10.443z" fill="#edbb4c"></path><path d="M118.262 392.464c0 23.625-13.709 44.042-33.625 53.718a257.204 257.204 0 0 1-45.359-53.864 255.636 255.636 0 0 1-21.797-43.133c10.7-10.167 25.172-16.405 41.096-16.405 32.967-.001 59.685 26.728 59.685 59.684z" fill="#5c5e70"></path><path d="M93.132 392.464c0 16.896-12.121 30.95-28.139 33.959a250.022 250.022 0 0 1-13.887-16.938 252.03 252.03 0 0 1-11.828-17.168c-.533-.836-1.055-1.682-1.578-2.529a251.535 251.535 0 0 1-8.652-15.256c6.06-9.958 17.021-16.603 29.529-16.603 19.08.001 34.555 15.465 34.555 34.535z" fill="#e8dbc4"></path><g fill="#d6c8b0"><path d="M37.24 384.658c0 1.755.157 3.469.46 5.13a251.535 251.535 0 0 1-8.652-15.256c5.319-8.725 14.399-14.911 24.994-16.3-9.926 4.64-16.802 14.734-16.802 26.426zM92.818 397.009c-1.944 14.838-13.27 26.687-27.826 29.414a250.022 250.022 0 0 1-13.887-16.938 29.005 29.005 0 0 0 15.287 4.336c11.704 0 21.787-6.885 26.426-16.812z"></path></g><path d="M313.987 288.632h28.588a5.92 5.92 0 0 0 5.921-5.921v-2.185a5.92 5.92 0 0 0-5.921-5.921h-28.588a5.92 5.92 0 0 0-5.921 5.921v2.185a5.92 5.92 0 0 0 5.921 5.921z" fill="#ef4152"></path></svg><svg width="500" height="500" viewBox="0 0 500 500" id="coffee" x="512" y="512"><path fill="#e37c33" d="M0 0h500v500H0z"></path><path opacity=".1" fill="#221714" d="M500 257.45V500H234.15l-20.149-20.149-93.251-93.25-13.751-13.752-5.15-178.149 40.149-40.149.45-.45 40.703-40.702h172.798l81.853 81.851.049.049 30.35 30.352z"></path><path d="M437.802 195.25c-.352-1.2-.752-2.399-1.202-3.599s-.9-2.35-1.449-3.5c-1-2.25-2.151-4.5-3.449-6.602a65.15 65.15 0 0 0-6.603-8.999c-.847-.9-1.698-1.85-2.549-2.701a60.519 60.519 0 0 0-25.451-15.299c-5.601-1.751-11.547-2.651-17.75-2.651-5.55 0-10.898.751-15.949 2.102h-.05l.95-32.251.252-8.351H99.499l2.35 81.301 5.15 178.148.4 13.752h249.252l.45-16.948v-.054l2.85-98.499a61.933 61.933 0 0 0 19.348 3.101 61.25 61.25 0 0 0 18.551-2.85 46.6 46.6 0 0 0 3.701-1.351c1.197-.4 2.398-.949 3.547-1.499h.054c1.549-.751 3.098-1.549 4.547-2.403h.054c1.499-.847 2.949-1.797 4.349-2.746 1.4-1 2.8-1.999 4.101-3.102h.05c1.499-1.301 2.949-2.598 4.299-3.948 1.4-1.403 2.751-2.852 3.948-4.353 2.503-2.998 4.65-6.249 6.604-9.699.05-.05 0-.05 0-.05 4.65-8.701 7.348-18.6 7.348-29.15-.003-6.199-.903-12.148-2.65-17.799zm-37.953 38.351c-1.297 1.299-2.7 2.449-4.249 3.55h-.05c-4.65 3.099-10.25 4.949-16.251 4.949-3.498 0-6.798-.599-9.898-1.749-3.052-1.101-5.901-2.75-8.4-4.751l1.301-46.099c.599-.401 1.198-.851 1.851-1.202.648-.349 1.297-.75 1.949-1.099a30.05 30.05 0 0 1 6.352-2.35c1.449-.4 2.948-.65 4.497-.751.801-.049 1.603-.099 2.399-.099 7.999 0 15.251 3.25 20.55 8.551 1.301 1.299 2.453 2.699 3.502 4.25s1.949 3.201 2.701 5.001c.347.849.697 1.749.949 2.649a28.701 28.701 0 0 1 1.297 8.6c0 5.049-1.247 9.749-3.498 13.849a26.368 26.368 0 0 1-5.002 6.701z" fill="#fff"></path><path d="M225.533 266.525c-2.976 7.354-6.836 9.758-11.723 12.794-5.032 3.129-11.215 6.974-15.663 16.403-15.354-14.076-19.97-40.618-9.804-65.713 12.368-30.535 41.935-47.375 66.044-37.611.336.137.672.279 1 .425-2.979 7.342-6.836 9.739-11.719 12.773-5.409 3.367-12.15 7.555-16.636 18.629-4.482 11.072-2.56 18.77-1.015 24.954 1.396 5.582 2.499 9.992-.484 17.346z" fill="#7a4544"></path><path d="M275.643 265.365c-12.367 30.537-41.935 47.379-66.044 37.613-.34-.138-.671-.278-1.003-.424 2.979-7.343 6.836-9.742 11.719-12.775 5.413-3.368 12.15-7.557 16.636-18.631 4.486-11.07 2.56-18.77 1.018-24.954-1.396-5.581-2.499-9.991.481-17.345 2.979-7.357 6.836-9.754 11.723-12.791 5.035-3.132 11.215-6.973 15.663-16.403 15.353 14.077 19.969 40.616 9.807 65.71z" fill="#7a4544"></path><path d="M437.851 195.299l-.049-.05c-.352-1.2-.752-2.399-1.202-3.599s-.9-2.35-1.449-3.5c-1-2.3-2.151-4.5-3.449-6.602-1.899-3.198-4.15-6.199-6.603-8.999-.847-.9-1.698-1.85-2.549-2.701a60.519 60.519 0 0 0-25.451-15.299c-5.601-1.751-11.547-2.651-17.75-2.651-5.55 0-10.898.751-15.949 2.102l.9-32.251.252-8.351H100.849l41.149 41.151L267.601 280.15l89.501 89.501.05.045 2.85-98.549a62.02 62.02 0 0 0 19.348 3.102c6.451 0 12.649-.999 18.501-2.899 1.301-.4 2.499-.801 3.701-1.351 1.197-.4 2.398-.949 3.547-1.499h.054c1.549-.751 3.098-1.549 4.547-2.403h.054c1.499-.847 2.949-1.797 4.349-2.746 1.4-1 2.8-1.999 4.101-3.102h.05c1.499-1.301 2.949-2.598 4.299-3.948 1.4-1.403 2.751-2.852 3.948-4.353a55.088 55.088 0 0 0 6.604-9.699c.05-.05 0-.05 0-.05 4.749-8.651 7.396-18.6 7.396-29.1-.003-6.2-.903-12.148-2.65-17.8zM404.85 226.9a26.324 26.324 0 0 1-5.001 6.701 25.692 25.692 0 0 1-4.249 3.55h-.05c-4.65 3.2-10.2 5.001-16.201 5.001-3.498 0-6.848-.601-9.948-1.801-3.102-1.051-5.901-2.701-8.4-4.702v-.049l1.351-46.049c.599-.4 1.198-.801 1.801-1.251.648-.349 1.297-.75 1.949-1.099a30.05 30.05 0 0 1 6.352-2.35c1.449-.4 2.948-.65 4.497-.751.801-.049 1.603-.099 2.399-.099 7.999 0 15.251 3.25 20.55 8.551 1.301 1.299 2.453 2.699 3.502 4.25s1.949 3.201 2.701 5.001c.347.849.697 1.749.949 2.649.9 2.749 1.351 5.649 1.351 8.65a28.62 28.62 0 0 1-3.553 13.798z" opacity=".05" fill="#050001"></path></svg><svg width="500" height="500" viewBox="0 0 500 500" id="coffee-green" x="1012" y="1012"><path fill="#89c685" d="M0 0h500v500H0z"></path><path opacity=".1" fill="#221714" d="M500 257.45V500H234.15l-20.149-20.149-93.251-93.25L107 372.849 101.851 194.7 142 154.551l.45-.45 40.699-40.702h172.8l81.853 81.851.049.049 30.35 30.352z"></path><path d="M437.802 195.25c-.352-1.2-.752-2.399-1.202-3.599s-.9-2.35-1.449-3.5c-1-2.25-2.151-4.5-3.449-6.602a65.15 65.15 0 0 0-6.603-8.999c-.847-.9-1.698-1.85-2.549-2.701a60.505 60.505 0 0 0-25.447-15.299c-5.601-1.751-11.551-2.651-17.754-2.651-5.546 0-10.898.751-15.949 2.102h-.05l.95-32.251.248-8.351H99.5l2.35 81.301L107 372.849l.398 13.752H356.65l.45-16.948v-.054l2.846-98.499a61.977 61.977 0 0 0 19.352 3.101 61.25 61.25 0 0 0 18.551-2.85c1.252-.4 2.503-.851 3.701-1.351 1.197-.4 2.398-.949 3.547-1.499h.054c1.549-.751 3.098-1.549 4.547-2.403h.054c1.495-.847 2.949-1.797 4.349-2.746 1.4-1 2.8-1.999 4.101-3.102h.05c1.499-1.301 2.949-2.598 4.299-3.948 1.4-1.403 2.751-2.852 3.948-4.353 2.503-2.998 4.65-6.249 6.604-9.699.05-.05 0-.05 0-.05 4.65-8.701 7.348-18.6 7.348-29.15-.002-6.2-.902-12.149-2.649-17.8zm-37.953 38.351c-1.297 1.299-2.7 2.449-4.249 3.55h-.05c-4.65 3.099-10.25 4.949-16.251 4.949-3.498 0-6.801-.599-9.898-1.749-3.052-1.101-5.898-2.75-8.4-4.751l1.301-46.099c.599-.401 1.201-.851 1.851-1.202.648-.349 1.297-.75 1.949-1.099a30.05 30.05 0 0 1 6.352-2.35c1.449-.4 2.948-.65 4.497-.751.801-.049 1.599-.099 2.399-.099 8.003 0 15.251 3.25 20.554 8.551 1.297 1.299 2.449 2.699 3.498 4.25s1.949 3.201 2.697 5.001c.351.849.701 1.749.953 2.649a28.701 28.701 0 0 1 1.297 8.6c0 5.049-1.247 9.749-3.498 13.849a26.462 26.462 0 0 1-5.002 6.701z" fill="#fff9f7"></path><path d="M225.534 266.525c-2.979 7.354-6.837 9.758-11.724 12.794-5.034 3.129-11.213 6.974-15.661 16.403-15.354-14.076-19.972-40.618-9.808-65.713 12.369-30.535 41.937-47.375 66.045-37.611.336.137.672.279 1 .425-2.979 7.342-6.834 9.739-11.717 12.773-5.413 3.367-12.152 7.555-16.636 18.629-4.486 11.072-2.562 18.77-1.017 24.954 1.397 5.582 2.498 9.992-.482 17.346z" fill="#aa6940"></path><path d="M275.643 265.365c-12.367 30.537-41.937 47.379-66.044 37.613-.34-.138-.673-.278-1.001-.424 2.979-7.343 6.834-9.742 11.717-12.775 5.413-3.368 12.152-7.557 16.636-18.631 4.486-11.07 2.562-18.77 1.017-24.954-1.395-5.581-2.497-9.991.482-17.345 2.979-7.357 6.838-9.754 11.723-12.791 5.031-3.132 11.215-6.973 15.663-16.403 15.353 14.077 19.969 40.616 9.807 65.71z" fill="#aa6940"></path><path d="M437.851 195.299l-.049-.05c-.352-1.2-.752-2.399-1.202-3.599s-.9-2.35-1.449-3.5c-1-2.3-2.151-4.5-3.449-6.602-1.903-3.198-4.15-6.199-6.603-8.999-.847-.9-1.698-1.85-2.549-2.701a60.505 60.505 0 0 0-25.447-15.299c-5.601-1.751-11.551-2.651-17.754-2.651-5.546 0-10.898.751-15.949 2.102l.9-32.251.248-8.351H100.849L142 154.551l125.601 125.601 89.501 89.501.046.045 2.854-98.549a62.02 62.02 0 0 0 19.348 3.102c6.451 0 12.649-.999 18.501-2.899 1.301-.4 2.503-.801 3.701-1.351 1.197-.4 2.398-.949 3.547-1.499h.054c1.549-.751 3.098-1.549 4.547-2.403h.054c1.495-.847 2.949-1.797 4.349-2.746 1.4-1 2.8-1.999 4.101-3.102h.05c1.499-1.301 2.949-2.598 4.299-3.948 1.4-1.403 2.751-2.852 3.948-4.353a55.088 55.088 0 0 0 6.604-9.699c.05-.05 0-.05 0-.05 4.749-8.651 7.396-18.6 7.396-29.1-.003-6.202-.903-12.15-2.65-17.802zM404.85 226.9a26.418 26.418 0 0 1-5.001 6.701 25.529 25.529 0 0 1-4.249 3.55h-.05c-4.65 3.2-10.2 5.001-16.201 5.001-3.498 0-6.851-.601-9.948-1.801-3.098-1.051-5.898-2.701-8.4-4.702v-.049l1.351-46.049c.599-.4 1.198-.801 1.801-1.251.648-.349 1.297-.75 1.949-1.099a30.05 30.05 0 0 1 6.352-2.35c1.449-.4 2.948-.65 4.497-.751.801-.049 1.599-.099 2.399-.099 8.003 0 15.251 3.25 20.554 8.551 1.297 1.299 2.449 2.699 3.498 4.25s1.949 3.201 2.697 5.001c.351.849.701 1.749.953 2.649.9 2.749 1.351 5.649 1.351 8.65a28.62 28.62 0 0 1-3.553 13.798z" opacity=".05" fill="#050001"></path></svg><svg width="500" height="500" viewBox="0 0 500 500" id="coffee-pink" x="1512" y="1512"><path fill="#e07a80" d="M0 0h500v500H0z"></path><path opacity=".1" fill="#221714" d="M500 257.45V500H234.15l-20.149-20.149-93.251-93.25L107 372.849 101.851 194.7 142 154.551l.45-.45 40.699-40.702h172.8l81.849 81.851.053.049 30.35 30.352z"></path><path d="M437.798 195.25c-.348-1.2-.748-2.399-1.198-3.599s-.9-2.35-1.449-3.5c-1-2.25-2.151-4.5-3.449-6.602a65.453 65.453 0 0 0-6.599-8.999c-.854-.9-1.702-1.85-2.553-2.701a60.505 60.505 0 0 0-25.447-15.299c-5.601-1.751-11.551-2.651-17.754-2.651-5.546 0-10.898.751-15.949 2.102h-.05l.95-32.251.248-8.351H99.5l2.35 81.301L107 372.849l.4 13.752h249.25l.45-16.948v-.054l2.846-98.499a61.977 61.977 0 0 0 19.352 3.101 61.25 61.25 0 0 0 18.551-2.85c1.252-.4 2.503-.851 3.701-1.351 1.197-.4 2.398-.949 3.547-1.499h.054c1.549-.751 3.098-1.549 4.547-2.403h.054c1.495-.847 2.949-1.797 4.349-2.746 1.4-1 2.8-1.999 4.097-3.102h.054c1.499-1.301 2.949-2.598 4.299-3.948 1.4-1.403 2.751-2.852 3.948-4.353 2.503-2.998 4.654-6.249 6.6-9.699.054-.05 0-.05 0-.05 4.654-8.701 7.355-18.6 7.355-29.15-.001-6.2-.901-12.149-2.656-17.8zm-37.949 38.351c-1.297 1.299-2.7 2.449-4.249 3.55h-.05c-4.65 3.099-10.25 4.949-16.251 4.949-3.498 0-6.801-.599-9.898-1.749-3.052-1.101-5.898-2.75-8.4-4.751l1.301-46.099c.599-.401 1.201-.851 1.851-1.202.648-.349 1.297-.75 1.949-1.099a30.05 30.05 0 0 1 6.352-2.35c1.449-.4 2.948-.65 4.497-.751.801-.049 1.599-.099 2.399-.099 8.003 0 15.251 3.25 20.554 8.551 1.297 1.299 2.449 2.699 3.498 4.25s1.949 3.201 2.697 5.001c.351.849.701 1.749.953 2.649a28.701 28.701 0 0 1 1.297 8.6c0 5.049-1.247 9.749-3.498 13.849a26.462 26.462 0 0 1-5.002 6.701z" fill="#fff"></path><path d="M225.534 266.525c-2.979 7.354-6.837 9.758-11.724 12.794-5.034 3.129-11.213 6.974-15.661 16.403-15.354-14.076-19.972-40.618-9.808-65.713 12.369-30.535 41.937-47.375 66.045-37.611.336.137.672.279 1 .425-2.979 7.342-6.834 9.739-11.717 12.773-5.413 3.367-12.152 7.555-16.636 18.629-4.486 11.072-2.562 18.77-1.017 24.954 1.397 5.582 2.498 9.992-.482 17.346z" fill="#643719"></path><path d="M275.643 265.365c-12.367 30.537-41.937 47.379-66.044 37.613-.34-.138-.673-.278-1.001-.424 2.979-7.343 6.834-9.742 11.717-12.775 5.413-3.368 12.152-7.557 16.636-18.631 4.486-11.07 2.562-18.77 1.017-24.954-1.395-5.581-2.497-9.991.482-17.345 2.979-7.357 6.838-9.754 11.723-12.791 5.031-3.132 11.215-6.973 15.663-16.403 15.353 14.077 19.969 40.616 9.807 65.71z" fill="#643719"></path><path d="M437.851 195.299l-.053-.05c-.348-1.2-.748-2.399-1.198-3.599s-.9-2.35-1.449-3.5c-1-2.3-2.151-4.5-3.449-6.602-1.899-3.198-4.15-6.199-6.599-8.999-.854-.9-1.702-1.85-2.553-2.701a60.505 60.505 0 0 0-25.447-15.299c-5.601-1.751-11.551-2.651-17.754-2.651-5.546 0-10.898.751-15.949 2.102l.9-32.251.248-8.351H100.849L142 154.551l125.601 125.601 89.501 89.501.046.045 2.854-98.549a62.02 62.02 0 0 0 19.348 3.102c6.451 0 12.649-.999 18.501-2.899 1.301-.4 2.503-.801 3.701-1.351 1.197-.4 2.398-.949 3.547-1.499h.054c1.549-.751 3.098-1.549 4.547-2.403h.054c1.495-.847 2.949-1.797 4.349-2.746 1.4-1 2.8-1.999 4.097-3.102h.054c1.499-1.301 2.949-2.598 4.299-3.948 1.4-1.403 2.751-2.852 3.948-4.353a54.851 54.851 0 0 0 6.6-9.699c.054-.05 0-.05 0-.05 4.753-8.651 7.4-18.6 7.4-29.1-.003-6.202-.903-12.15-2.65-17.802zM404.85 226.9a26.418 26.418 0 0 1-5.001 6.701 25.529 25.529 0 0 1-4.249 3.55h-.05c-4.65 3.2-10.2 5.001-16.201 5.001-3.498 0-6.851-.601-9.948-1.801-3.098-1.051-5.898-2.701-8.4-4.702v-.049l1.351-46.049c.599-.4 1.198-.801 1.801-1.251.648-.349 1.297-.75 1.949-1.099a30.05 30.05 0 0 1 6.352-2.35c1.449-.4 2.948-.65 4.497-.751.801-.049 1.599-.099 2.399-.099 8.003 0 15.251 3.25 20.554 8.551 1.297 1.299 2.449 2.699 3.498 4.25s1.949 3.201 2.697 5.001c.351.849.701 1.749.953 2.649.9 2.749 1.351 5.649 1.351 8.65a28.62 28.62 0 0 1-3.553 13.798z" opacity=".05" fill="#050001"></path></svg><svg viewBox="0 0 512 512" width="512" height="512" id="delivery-truck" x="2012" y="2012"><circle cx="256" cy="256" r="256" fill="#797b89"></circle><path d="M512 256H0c0-13.291 1.014-26.352 2.968-39.1a266.792 266.792 0 0 1 2.069-11.661c6.98-34.732 20.992-66.926 40.49-95.013A256.363 256.363 0 0 1 76.56 73.425a252.188 252.188 0 0 1 7.272-6.886C129.296 25.203 189.701 0 256 0c59.016 0 113.361 19.968 156.662 53.52a257.21 257.21 0 0 1 53.812 56.707 255.282 255.282 0 0 1 32.695 65.515C507.496 200.986 512 227.976 512 256z" fill="#78caef"></path><path fill="#279fc9" d="M471.064 278.835H295.973V147.723h135.261z"></path><path d="M481.687 241.601L444.343 149.4a24.115 24.115 0 0 0-22.35-15.057H275.822v257.975h196.901a253.338 253.338 0 0 0 10.898-19.048V251.496c0-3.385-.659-6.76-1.934-9.895zm-52.715 10.094H321.567c-10.156 0-18.38-8.234-18.38-18.38v-52.328c0-10.637 8.62-19.268 19.268-19.268H406.8a19.272 19.272 0 0 1 17.857 12.037l21.326 52.663c4.901 12.079-3.981 25.276-17.011 25.276z" fill="#ff525d"></path><path d="M275.811 106.82v285.497H39.278C14.388 352.852 0 306.103 0 256c0-13.291 1.014-26.352 2.968-39.1a266.792 266.792 0 0 1 2.069-11.661c6.98-34.732 20.992-66.926 40.49-95.013A256.363 256.363 0 0 1 76.56 73.425h165.846c18.453 0 33.405 14.952 33.405 33.395z" fill="#ffd15c"></path><path d="M487.215 366.017a243.783 243.783 0 0 1-8.14 15.653 241.4 241.4 0 0 1-6.353 10.647h-71.837c-64.366 0-7.408-19.372-10.313-26.791h93.048c1.244 0 2.446.167 3.595.491z" fill="#f9eed7"></path><path d="M479.075 381.67a241.4 241.4 0 0 1-6.353 10.647h-70.207V381.67h76.56z" fill="#e8dbc4"></path><path d="M395.254 392.318H275.82V172.635c.458 30.867 7.388 169.126 94.123 196.515 23.826 7.525 29.84 15.458 25.311 23.168z" fill="#ef4152"></path><path d="M197.089 392.317H39.278C14.388 352.852 0 306.103 0 256c0-13.291 1.014-26.352 2.968-39.1a266.792 266.792 0 0 1 2.069-11.661c30.897 82.536 88.377 175.417 192.052 187.078z" fill="#edbb4c"></path><circle cx="380.364" cy="392.474" r="59.695" fill="#5c5e70"></circle><circle cx="380.364" cy="392.474" r="34.544" fill="#e8dbc4"></circle><path d="M388.184 413.817c-16.102 0-29.159-13.057-29.159-29.159 0-11.696 6.881-21.783 16.807-26.423-16.943 2.215-30.014 16.696-30.014 34.233 0 19.085 15.471 34.555 34.556 34.555 17.538 0 32.018-13.07 34.233-30.014-4.64 9.927-14.727 16.808-26.423 16.808z" fill="#d6c8b0"></path><circle cx="456.485" cy="324.336" r="21.468" fill="#ffd15c"></circle><path d="M461.341 337.604c-10.006 0-18.12-8.114-18.12-18.12 0-7.268 4.276-13.536 10.444-16.419-10.528 1.376-18.65 10.375-18.65 21.273 0 11.86 9.613 21.473 21.473 21.473 10.898 0 19.896-8.121 21.273-18.65-2.883 6.167-9.151 10.443-16.42 10.443z" fill="#edbb4c"></path><path d="M118.262 392.464c0 23.625-13.709 44.042-33.625 53.718a257.204 257.204 0 0 1-45.359-53.864 255.636 255.636 0 0 1-21.797-43.133c10.7-10.167 25.172-16.405 41.096-16.405 32.967-.001 59.685 26.728 59.685 59.684z" fill="#5c5e70"></path><path d="M93.132 392.464c0 16.896-12.121 30.95-28.139 33.959a250.022 250.022 0 0 1-13.887-16.938 252.03 252.03 0 0 1-11.828-17.168c-.533-.836-1.055-1.682-1.578-2.529a251.535 251.535 0 0 1-8.652-15.256c6.06-9.958 17.021-16.603 29.529-16.603 19.08.001 34.555 15.465 34.555 34.535z" fill="#e8dbc4"></path><g fill="#d6c8b0"><path d="M37.24 384.658c0 1.755.157 3.469.46 5.13a251.535 251.535 0 0 1-8.652-15.256c5.319-8.725 14.399-14.911 24.994-16.3-9.926 4.64-16.802 14.734-16.802 26.426zM92.818 397.009c-1.944 14.838-13.27 26.687-27.826 29.414a250.022 250.022 0 0 1-13.887-16.938 29.005 29.005 0 0 0 15.287 4.336c11.704 0 21.787-6.885 26.426-16.812z"></path></g><path d="M313.987 288.632h28.588a5.92 5.92 0 0 0 5.921-5.921v-2.185a5.92 5.92 0 0 0-5.921-5.921h-28.588a5.92 5.92 0 0 0-5.921 5.921v2.185a5.92 5.92 0 0 0 5.921 5.921z" fill="#ef4152"></path></svg></svg>