<?xml version="1.0" encoding="utf-8"?>
<!-- Generator: Adobe Illustrator 16.0.0, SVG Export Plug-In . SVG Version: 6.00 Build 0)  -->
<!DOCTYPE svg PUBLIC "-//W3C//DTD SVG 1.1//EN" "http://www.w3.org/Graphics/SVG/1.1/DTD/svg11.dtd">
<svg version="1.1" id="レイヤー_1" xmlns="http://www.w3.org/2000/svg" xmlns:xlink="http://www.w3.org/1999/xlink" x="0px"
	 y="0px" width="1000px" height="1000px" viewBox="0 0 1000 1000" enable-background="new 0 0 1000 1000" xml:space="preserve">
<path d="M986.515,783.604L587.427,119.426c-17.982-29.939-51.486-48.52-87.428-48.52c-35.984,0-69.443,18.58-87.404,48.52
	L13.485,783.604c-17.98,29.896-17.98,67.055,0,96.994c17.982,29.939,51.486,48.496,87.428,48.496h798.174
	c35.963,0,69.445-18.557,87.428-48.496C1004.495,850.658,1004.495,813.5,986.515,783.604z M499.999,819.832
	c-34.5,0-62.514-26.838-62.514-60.055c0-33.129,28.014-60.057,62.514-60.057c34.502,0,62.492,26.928,62.492,60.057
	C562.491,792.994,534.501,819.832,499.999,819.832z M538.509,627.619c0,20.461-17.25,37.025-38.51,37.025
	c-21.279,0-38.508-16.564-38.508-37.025l-24.006-271.602c0-33.174,28.014-60.057,62.514-60.057
	c34.502,0,62.492,26.906,62.492,60.057L538.509,627.619z"/>
</svg>
