<?xml version="1.0" encoding="utf-8"?>
<!-- Generator: Adobe Illustrator 16.0.0, SVG Export Plug-In . SVG Version: 6.00 Build 0)  -->
<!DOCTYPE svg PUBLIC "-//W3C//DTD SVG 1.1//EN" "http://www.w3.org/Graphics/SVG/1.1/DTD/svg11.dtd">
<svg version="1.1" id="レイヤー_1" xmlns="http://www.w3.org/2000/svg" xmlns:xlink="http://www.w3.org/1999/xlink" x="0px"
	 y="0px" width="1000px" height="1000px" viewBox="0 0 1000 1000" enable-background="new 0 0 1000 1000" xml:space="preserve">
<g>
	<g>
		<path d="M493.145,303.529c-110.829,0-201.042,89.5-201.042,199.347c0,109.869,90.213,199.482,201.042,199.482
			c110.83,0,201.031-89.613,201.031-199.482C694.176,393.029,603.975,303.529,493.145,303.529z M-0.497-0.498v1000h1000v-1000
			H-0.497z M863.41,843.289H719.179v-77.903c-56.879,57.104-134.578,90.812-226.034,90.812
			c-202.771,0-367.823-158.519-367.823-353.321c0-194.894,165.052-353.345,367.823-353.345c91.456,0,169.155,33.752,226.034,90.902
			v-77.745H863.41V843.289z"/>
	</g>
</g>
</svg>
