<?xml version="1.0" encoding="utf-8"?>
<!-- Generator: Adobe Illustrator 16.0.0, SVG Export Plug-In . SVG Version: 6.00 Build 0)  -->
<!DOCTYPE svg PUBLIC "-//W3C//DTD SVG 1.1//EN" "http://www.w3.org/Graphics/SVG/1.1/DTD/svg11.dtd">
<svg version="1.1" id="レイヤー_1" xmlns="http://www.w3.org/2000/svg" xmlns:xlink="http://www.w3.org/1999/xlink" x="0px"
	 y="0px" width="1000px" height="1000px" viewBox="0 0 1000 1000" enable-background="new 0 0 1000 1000" xml:space="preserve">
<path d="M954.313,195.119c-2.703-5.943-7.504-10.931-13.61-13.773c-12.631-5.919-27.126-10.906-43.253-15.357
	c-24.236-6.572-52.296-11.723-83.15-15.335c-30.902-3.542-64.624-5.5-99.977-5.5c-47.192,0-91.401,3.449-129.924,9.602
	c-19.296,3.1-37.077,6.852-53.251,11.233c-11.419,3.146-21.953,6.571-31.647,10.417c-9.706-3.846-20.24-7.271-31.683-10.417
	c-24.202-6.572-52.249-11.723-83.127-15.335c-30.914-3.542-64.636-5.5-100.012-5.5c-47.181,0-91.401,3.449-129.912,9.602
	c-19.214,3.1-37.065,6.852-53.216,11.233c-16.15,4.451-30.61,9.438-43.3,15.357c-6.105,2.843-10.872,7.83-13.587,13.773
	C23.551,200.455-0.5,210.453-0.5,228.188c0,11.069,0,513.912,0,513.912c0,49.43,39.676,89.514,88.593,89.514h357.026v4.66
	c0,9.719,7.748,17.572,17.326,17.572h74.109c9.578,0,17.338-7.854,17.338-17.572v-4.66h357.026
	c48.894,0,88.581-40.084,88.581-89.514c0,0,0-502.843,0-513.912C999.5,210.453,975.45,200.455,954.313,195.119z M471.721,729.959
	c-1.305-0.373-2.563-0.769-3.903-1.165c-24.202-6.618-52.237-11.723-83.127-15.334c-30.914-3.543-64.636-5.523-100.012-5.523
	c-47.169,0-91.39,3.495-129.912,9.625c-19.226,3.076-37.077,6.852-53.216,11.232c-1.34,0.396-2.599,0.792-3.903,1.165V225.881
	c5.604-1.98,11.745-3.868,18.364-5.687c20.811-5.663,46.388-10.464,74.982-13.749c28.664-3.333,60.335-5.15,93.685-5.15
	c44.465,0,86.04,3.309,121.219,8.902c17.606,2.819,33.604,6.245,47.46,9.997c6.653,1.818,12.782,3.706,18.363,5.687V729.959z
	 M901.317,729.959c-1.305-0.373-2.517-0.769-3.868-1.165c-24.236-6.618-52.296-11.723-83.15-15.334
	c-30.902-3.543-64.624-5.523-99.977-5.523c-47.192,0-91.401,3.495-129.924,9.625c-19.296,3.076-37.077,6.852-53.251,11.232
	c-1.316,0.396-2.563,0.792-3.88,1.165V225.881c5.581-1.98,11.711-3.868,18.376-5.687c20.787-5.663,46.329-10.464,74.947-13.749
	c28.664-3.333,60.358-5.15,93.731-5.15c44.418,0,85.993,3.309,121.207,8.902c17.595,2.819,33.559,6.245,47.448,9.997
	c6.618,1.818,12.747,3.706,18.34,5.687V729.959z"/>
</svg>
