<?xml version="1.0" encoding="utf-8"?>
<!-- Generator: Adobe Illustrator 16.0.0, SVG Export Plug-In . SVG Version: 6.00 Build 0)  -->
<!DOCTYPE svg PUBLIC "-//W3C//DTD SVG 1.1//EN" "http://www.w3.org/Graphics/SVG/1.1/DTD/svg11.dtd">
<svg version="1.1" id="レイヤー_1" xmlns="http://www.w3.org/2000/svg" xmlns:xlink="http://www.w3.org/1999/xlink" x="0px"
	 y="0px" width="1000px" height="1000px" viewBox="0 0 1000 1000" enable-background="new 0 0 1000 1000" xml:space="preserve">
<g>
	<g>
		<path d="M698.634,173.827V0H300.34v375.339H57.526V1000h883.947V173.827H698.634z M863.68,920.453H135.294V454.859h242.84V79.534
			h242.733v173.84H863.68V920.453z M469.025,248.817h60.949v-79.334h-60.949V248.817z M469.025,447.766h60.949v-79.335h-60.949
			V447.766z M469.025,646.74h60.949v-79.361h-60.949V646.74z M469.025,845.661h60.949v-79.335h-60.949V845.661z M789.234,364.286
			h-60.923v79.361h60.923V364.286z M789.234,563.261h-60.923v79.334h60.923V563.261z M789.234,762.208h-60.923v79.335h60.923
			V762.208z M209.767,642.595h60.949v-79.334h-60.949V642.595z M209.767,841.543h60.949v-79.335h-60.949V841.543z"/>
	</g>
</g>
</svg>
