<?xml version="1.0" encoding="utf-8"?>
<!-- Generator: Adobe Illustrator 16.0.0, SVG Export Plug-In . SVG Version: 6.00 Build 0)  -->
<!DOCTYPE svg PUBLIC "-//W3C//DTD SVG 1.1//EN" "http://www.w3.org/Graphics/SVG/1.1/DTD/svg11.dtd">
<svg version="1.1" id="レイヤー_1" xmlns="http://www.w3.org/2000/svg" xmlns:xlink="http://www.w3.org/1999/xlink" x="0px"
	 y="0px" width="1000px" height="1000px" viewBox="0 0 1000 1000" enable-background="new 0 0 1000 1000" xml:space="preserve">
<path d="M500,249.988v-200H0v900.023h1000V249.988H500z M200,850.012H100v-100h100V850.012z M200,650.012H100V549.988h100V650.012z
	 M200,449.988H100v-100h100V449.988z M200,249.988H100v-100h100V249.988z M400,850.012H300v-100h100V850.012z M400,650.012H300
	V549.988h100V650.012z M400,449.988H300v-100h100V449.988z M400,249.988H300v-100h100V249.988z M900,850.012H500v-100h100v-100H500
	V549.988h100v-100H500v-100h400V850.012z M800,449.988H700v100h100V449.988z M800,650.012H700v100h100V650.012z"/>
</svg>
