<?xml version="1.0" encoding="utf-8"?>
<!-- Generator: Adobe Illustrator 16.0.0, SVG Export Plug-In . SVG Version: 6.00 Build 0)  -->
<!DOCTYPE svg PUBLIC "-//W3C//DTD SVG 1.1//EN" "http://www.w3.org/Graphics/SVG/1.1/DTD/svg11.dtd">
<svg version="1.1" id="レイヤー_1" xmlns="http://www.w3.org/2000/svg" xmlns:xlink="http://www.w3.org/1999/xlink" x="0px"
	 y="0px" width="1000px" height="1000px" viewBox="0 0 1000 1000" enable-background="new 0 0 1000 1000" xml:space="preserve">
<g>
	<g>
		<path d="M884.434,111.667c-11.113-32.789-42.189-56.123-78.852-56.123H194.469c-36.713,0-67.211,23.334-78.904,56.123L0,444.429
			v444.457c0,30.498,25.02,55.57,55.57,55.57h55.57c30.549,0,55.568-25.072,55.568-55.57v-55.57h666.633v55.57
			c0,30.498,25.02,55.57,55.57,55.57h55.57c30.498,0,55.518-25.072,55.518-55.57V444.429L884.434,111.667z M213.904,166.657h571.715
			l59.943,172.768H153.91L213.904,166.657z M888.912,722.175H111.141V444.429h777.771V722.175z M250.039,666.657
			c46.035,0,83.328-37.346,83.328-83.328c0-46.037-37.293-83.355-83.328-83.355c-46.037,0-83.33,37.318-83.33,83.355
			C166.709,629.312,204.002,666.657,250.039,666.657z M750.012,666.657c46.037,0,83.33-37.346,83.33-83.328
			c0-46.037-37.293-83.355-83.33-83.355c-45.982,0-83.328,37.318-83.328,83.355C666.684,629.312,704.029,666.657,750.012,666.657z"
			/>
	</g>
</g>
</svg>
