<?xml version="1.0" encoding="utf-8"?>
<!-- Generator: Adobe Illustrator 16.0.0, SVG Export Plug-In . SVG Version: 6.00 Build 0)  -->
<!DOCTYPE svg PUBLIC "-//W3C//DTD SVG 1.1//EN" "http://www.w3.org/Graphics/SVG/1.1/DTD/svg11.dtd">
<svg version="1.1" id="レイヤー_1" xmlns="http://www.w3.org/2000/svg" xmlns:xlink="http://www.w3.org/1999/xlink" x="0px"
	 y="0px" width="1000px" height="1000px" viewBox="0 0 1000 1000" enable-background="new 0 0 1000 1000" xml:space="preserve">
<path d="M944.834-0.012H55.189C24.719-0.012,0,24.729,0,55.199v889.602c0,30.514,24.719,55.211,55.189,55.211h478.959V612.764
	h-130.32V461.848h130.32v-111.33c0-129.17,78.865-199.484,194.102-199.484c55.166,0,102.65,4.125,116.453,5.947v134.986
	l-79.906,0.043c-62.633,0-74.785,29.775-74.785,73.482v96.355h149.439l-19.488,150.916H690.012v387.248h254.822
	c30.471,0,55.166-24.697,55.166-55.211V55.199C1000,24.729,975.305-0.012,944.834-0.012z"/>
</svg>
