<?xml version="1.0" encoding="utf-8"?>
<!-- Generator: Adobe Illustrator 16.0.0, SVG Export Plug-In . SVG Version: 6.00 Build 0)  -->
<!DOCTYPE svg PUBLIC "-//W3C//DTD SVG 1.1//EN" "http://www.w3.org/Graphics/SVG/1.1/DTD/svg11.dtd">
<svg version="1.1" id="レイヤー_1" xmlns="http://www.w3.org/2000/svg" xmlns:xlink="http://www.w3.org/1999/xlink" x="0px"
	 y="0px" width="1000px" height="1000px" viewBox="0 0 1000 1000" enable-background="new 0 0 1000 1000" xml:space="preserve">
<path d="M450,249.988h100v100.023H450V249.988z M450,449.988h100v300.023H450V449.988z M500-0.012c-276,0-500,223.998-500,500
	c0,276,224,500.023,500,500.023c275.977,0,500-224.023,500-500.023C1000,223.986,775.977-0.012,500-0.012z M500,900.012
	c-220.508,0-400-179.492-400-400.023c0-220.508,179.492-399.977,400-399.977S900,279.48,900,499.988
	C900,720.52,720.508,900.012,500,900.012z"/>
</svg>
