<?xml version="1.0" encoding="utf-8"?>
<!-- Generator: Adobe Illustrator 16.0.0, SVG Export Plug-In . SVG Version: 6.00 Build 0)  -->
<!DOCTYPE svg PUBLIC "-//W3C//DTD SVG 1.1//EN" "http://www.w3.org/Graphics/SVG/1.1/DTD/svg11.dtd">
<svg version="1.1" id="レイヤー_1" xmlns="http://www.w3.org/2000/svg" xmlns:xlink="http://www.w3.org/1999/xlink" x="0px"
	 y="0px" width="1000px" height="1000px" viewBox="0 0 1000 1000" enable-background="new 0 0 1000 1000" xml:space="preserve">
<path d="M883.373,124.535H116.627C52.236,124.535,0,179.848,0,248.08v503.891c0,68.258,52.236,123.494,116.627,123.494h766.746
	c64.443,0,116.627-55.236,116.627-123.494V248.08C1000,179.848,947.816,124.535,883.373,124.535z M944.307,785.234l-22.176,27.873
	L611.262,544.301l-48.117,48.574c-35.705,34.688-90.533,34.688-126.238,0l-48.117-48.574L77.92,813.107l-22.227-27.873
	l291.898-282.438L53.813,210.289L71.156,185.9l428.869,344.236L928.844,185.9l17.395,24.389L652.459,502.797L944.307,785.234z"/>
</svg>
