<?xml version="1.0" encoding="utf-8"?>
<!-- Generator: Adobe Illustrator 16.0.0, SVG Export Plug-In . SVG Version: 6.00 Build 0)  -->
<!DOCTYPE svg PUBLIC "-//W3C//DTD SVG 1.1//EN" "http://www.w3.org/Graphics/SVG/1.1/DTD/svg11.dtd">
<svg version="1.1" id="レイヤー_1" xmlns="http://www.w3.org/2000/svg" xmlns:xlink="http://www.w3.org/1999/xlink" x="0px"
	 y="0px" width="1000px" height="1000px" viewBox="0 0 1000 1000" enable-background="new 0 0 1000 1000" xml:space="preserve">
<g>
	<g>
		<path d="M691.783,82.239L490.26,283.748c-1.979,1.965-3.757,3.757-3.944,3.959c-0.203,0.174-1.98,1.966-3.945,3.931
			L98.444,675.551c-0.015,0-0.029,0-0.029,0.028L0.001,998.912c-0.015,0.058,0.043,0.116,0.115,0.116l318.521-96.939
			c2.674-0.81,4.855-1.475,4.855-1.475s1.619-1.618,3.584-3.612l380.372-380.328c1.966-1.966,3.758-3.729,3.931-3.932
			c0.202-0.202,1.966-1.965,3.931-3.931l201.566-201.508v-0.145L691.898,82.239C691.898,82.209,691.813,82.209,691.783,82.239z
			 M233.317,878.157L71.853,927.292c-0.058,0-0.13-0.058-0.115-0.116l49.148-161.449c0.015-0.087,0.102-0.087,0.145-0.058
			l112.33,112.315C233.404,878.042,233.389,878.129,233.317,878.157z M981.271,113.063l-93.355-93.341
			c-25.029-25-65.956-25-90.928,0l-46.619,46.605c-0.029,0.029-0.029,0.087,0,0.13l184.138,184.139c0.058,0.028,0.115,0.028,0.115,0
			l46.649-46.605C1006.243,178.975,1006.243,138.064,981.271,113.063z"/>
	</g>
</g>
</svg>
