<?xml version="1.0" encoding="utf-8"?>
<!-- Generator: Adobe Illustrator 16.0.0, SVG Export Plug-In . SVG Version: 6.00 Build 0)  -->
<!DOCTYPE svg PUBLIC "-//W3C//DTD SVG 1.1//EN" "http://www.w3.org/Graphics/SVG/1.1/DTD/svg11.dtd">
<svg version="1.1" id="レイヤー_1" xmlns="http://www.w3.org/2000/svg" xmlns:xlink="http://www.w3.org/1999/xlink" x="0px"
	 y="0px" width="1000px" height="1000px" viewBox="0 0 1000 1000" enable-background="new 0 0 1000 1000" xml:space="preserve">
<g>
	<g>
		<path d="M999.393,954.044l-1.573-19.928c-4.128-22.778-19.116-42.116-40.175-51.822l-90.671-37.005
			c-15.136-6.93-24.793-22.066-24.793-38.701v-13.343c0-6.34,1.008-12.605,3.097-18.552c0,0,57.031-76.1,57.031-146.228
			c0-62.364-28.396-108.899-69.729-130.551c18.813-43.021,29.254-90.542,29.26-140.502C861.814,163.563,704.676,6.426,510.804,6.426
			c-193.849,0-350.986,157.138-350.986,350.986c0,46.888,9.192,91.627,25.871,132.515c-51.475,16.128-88.972,66.888-88.972,138.539
			c0,70.128,57.056,146.228,57.056,146.228c2.015,5.946,3.071,12.212,3.071,18.552v13.343c0,16.635-9.705,31.771-24.842,38.701
			l-90.621,37.005C20.322,892,5.333,911.338,1.156,934.116l-1.548,19.928c-0.786,10.369,2.752,20.592,9.828,28.185
			c7.053,7.666,16.955,11.966,27.374,11.966h148.095l6.069-78.016l0.394-2.113c7.42-40.912,34.474-75.706,72.241-93.104
			l24.105-9.828c-0.147-1.548-0.64-2.998-0.64-4.546v-13.343c0-6.34,1.032-12.581,3.121-18.552c0,0,33.222-44.476,48.947-96.765
			c-2.927-6.176-5.805-12.614-8.571-19.259c18.968,11.373,39.098,21.008,60.171,28.679c14.089,25.043,26.219,41.223,26.219,41.223
			c2.481,7.225,3.76,14.817,3.76,22.459v16.169c0,20.075-11.795,38.381-30.076,46.81l-109.665,44.819
			c-25.48,11.696-43.64,35.113-48.652,62.707l-5.651,72.659h545.596l-5.577-72.659c-5.063-27.569-23.221-51.011-48.702-62.707
			l-109.689-44.819c-18.306-8.429-30.002-26.734-30.002-46.81V751.03c0-7.642,1.229-15.234,3.76-22.459
			c0,0,9.336-12.465,21.135-32.436c20.204-5.497,39.681-12.757,58.26-21.598c-0.523,1.13-1.049,2.253-1.575,3.366
			c15.677,52.265,48.972,96.789,48.972,96.789c2.015,5.946,3.096,12.212,3.096,18.552v13.343c0,1.548-0.54,2.998-0.688,4.546
			l22.459,9.165c39.389,17.986,66.418,52.78,73.912,93.693l0.368,2.138l6.045,78.064h148.169c10.419,0,20.321-4.3,27.349-11.966
			C996.641,974.636,1000.179,964.413,999.393,954.044z M777.016,484.449c-32.416,0-61.919,12.511-84.18,34.77h-16.934
			c12.335-43.787,19.756-93.029,21.059-145.344h120.55c-2.102,39.567-11.685,77.093-27.344,111.268
			C785.845,484.685,781.458,484.449,777.016,484.449z M771.881,195.63c26.464,42.633,42.804,92.146,45.63,145.344H696.862
			c-1.327-52.289-8.526-101.605-20.861-145.344H771.881z M727.995,140.245c7.15,7.15,13.933,14.67,20.346,22.483h-83.054
			c-5.872-16.144-12.384-31.477-19.633-45.532c-9.534-18.429-20.223-34.941-32.018-49.218
			C657.08,83.41,696.002,108.277,727.995,140.245z M527.267,50.729c5.136,0.271,10.246,0.663,15.309,1.18
			c8.084,3.637,16.069,8.575,24.007,15.038c24.179,19.682,46.588,53.026,63.616,95.781H527.267V50.729z M527.267,195.63h114.407
			c12.998,42.731,21.009,92.293,22.385,145.344H527.267V195.63z M663.961,373.875c-1.233,46.711-7.609,90.655-17.979,129.669
			c-14.858-67.573-61.05-112.637-118.715-123.583v-6.086H663.961z M366.622,463.418c-5.088-28.182-8.223-58.243-9.05-89.543h136.792
			v3.585C439.281,379.304,391.63,410.913,366.622,463.418z M357.671,340.974c1.4-53.075,9.436-102.588,22.435-145.344h114.259
			v145.344H357.671z M455.074,66.947c7.912-6.463,15.898-11.401,23.982-15.038c5.062-0.517,10.173-0.909,15.308-1.18v111.999
			h-102.76c4.251-10.688,8.724-21.009,13.613-30.444C419.813,104.001,436.989,81.715,455.074,66.947z M293.637,140.245
			c32.017-31.993,70.964-56.859,114.432-72.291c-20.813,25.187-38.161,57.449-51.773,94.774h-83.004
			C279.729,154.915,286.511,147.396,293.637,140.245z M249.775,195.63h95.953c-12.335,43.788-19.756,93.005-21.058,145.344H204.146
			C206.946,287.751,223.312,238.263,249.775,195.63z M324.794,373.875c1.302,52.265,8.502,101.581,20.837,145.344H306.14
			c-20.058-20.077-46.046-32.238-74.809-34.416c-15.573-34.084-25.11-71.492-27.186-110.928H324.794z M309.749,589.535
			c-2.154-12.363-3.396-24.902-3.428-37.415h41.626c0.078,24.993,6.107,50.589,14.577,74.259
			C343.632,615.947,325.958,603.577,309.749,589.535z M631.265,639.963c5.278-12.983,9.991-26.746,13.489-40.829
			c7.596-14.537,14.47-30.262,20.583-47.014h27.318c-0.051,19.674-3.103,39.419-7.967,58.452
			C667.992,622.052,650.115,631.922,631.265,639.963z"/>
	</g>
</g>
</svg>
