<?xml version="1.0" encoding="utf-8"?>
<!-- Generator: Adobe Illustrator 16.0.0, SVG Export Plug-In . SVG Version: 6.00 Build 0)  -->
<!DOCTYPE svg PUBLIC "-//W3C//DTD SVG 1.1//EN" "http://www.w3.org/Graphics/SVG/1.1/DTD/svg11.dtd">
<svg version="1.1" id="レイヤー_1" xmlns="http://www.w3.org/2000/svg" xmlns:xlink="http://www.w3.org/1999/xlink" x="0px"
	 y="0px" width="1000px" height="1000px" viewBox="0 0 1000 1000" enable-background="new 0 0 1000 1000" xml:space="preserve">
<path d="M105.419,623.47C34.767,552.879,0.286,459.28,0.286,364.051C0.286,166.979,167.798-0.504,364.84-0.504
	c198.733,0,366.183,164.191,366.183,362.893c0,85.387-29.528,170.773-87.016,239.766l165.882,67.33l169.08,170.772
	c13.165,16.426,19.748,37.741,19.748,59.058c0,52.535-44.385,100.181-98.552,100.181c-21.314,0-41.063-6.52-59.118-19.686
	L670.274,809.037l-67.331-164.252c-68.961,57.551-152.718,87.078-238.103,87.078C271.241,731.863,177.642,695.692,105.419,623.47z
	 M524.139,524.95c44.323-44.356,65.702-101.781,65.702-160.899c0-119.867-101.811-223.341-225-223.341
	c-119.868,0-223.31,101.813-223.31,223.341c0,124.788,101.811,226.599,223.31,226.599
	C422.328,590.649,479.816,567.674,524.139,524.95z"/>
</svg>
