<?xml version="1.0" encoding="utf-8"?>
<!-- Generator: Adobe Illustrator 16.0.0, SVG Export Plug-In . SVG Version: 6.00 Build 0)  -->
<!DOCTYPE svg PUBLIC "-//W3C//DTD SVG 1.1//EN" "http://www.w3.org/Graphics/SVG/1.1/DTD/svg11.dtd">
<svg version="1.1" id="レイヤー_1" xmlns="http://www.w3.org/2000/svg" xmlns:xlink="http://www.w3.org/1999/xlink" x="0px"
	 y="0px" width="1000px" height="1000px" viewBox="0 0 1000 1000" enable-background="new 0 0 1000 1000" xml:space="preserve">
<g>
	<g>
		<path d="M963.812,836.455L416.995,299.604c7.896-13.936,14.365-28.539,18.932-43.568c0.498-4.828,1.475-9.846,3.234-14.936
			c0.951-2.877,1.736-5.803,2.545-8.703c12.508-67.684-7.35-140.146-59.67-192.49C365.509,23.354,346.935,10.084,327.173,0
			c-0.977,0-1.951,0.143-2.902,0.332L306.72,4.661c-3.307,0.857-6.137,2.926-7.848,5.852c-1.713,2.9-2.164,6.42-1.262,9.68
			l37.766,135.674c1.404,5.066-0.498,10.441-4.732,13.533l-85.805,62.332c-2.615,1.855-5.85,2.688-9.037,2.26l-91.18-12.582
			c-4.971-0.666-9.014-4.209-10.369-9.037L94.396,69.086c-1.832-6.516-8.467-10.439-15.029-8.822l-23.068,5.635
			c-1.189,0.311-2.26,0.904-3.33,1.57c-26.469,37.123-39.811,80.74-40.002,124.402c0.381,54.818,21.381,109.492,63.166,151.301
			c50.416,50.418,119.432,70.203,184.975,60.953c9.465-1.381,18.098-2.332,26.018-2.879c7.563-2.068,15.006-4.803,22.379-7.752
			c91.701,92.893,542.201,555.115,542.201,555.115c30.963,31.012,81.143,31.012,112.107,0
			C994.774,917.645,994.774,867.465,963.812,836.455z M935.796,920.547c-15.506,15.506-40.57,15.506-56.029,0
			c-15.506-15.41-15.506-40.572,0-56.029c15.459-15.506,40.523-15.506,56.029,0C951.255,879.975,951.255,905.137,935.796,920.547z
			 M793.296,266.239l88.896-22.547L967.759,94.2l-41.475-39.334l-41.381-39.359L740.12,108.85l-17.789,89.918L568.677,360.77
			l69.895,68.611L793.296,266.239z M347.909,547.6c-17.693,15.316-42.76-3.662-75.578,30.965L55.417,807.25
			c-43.379,45.756-41.475,117.959,4.209,161.383c45.686,43.426,117.887,41.523,161.24-4.232l216.963-228.734
			c32.818-34.578,12.58-58.645,26.92-77.1c2.926-3.805,5.613-6.469,8.301-8.467c-41.047-42.047-80.336-82.236-114.344-116.982
			C357.28,537.922,354.022,542.344,347.909,547.6z"/>
	</g>
</g>
</svg>
