<?xml version="1.0" encoding="utf-8"?>
<!-- Generator: Adobe Illustrator 16.0.0, SVG Export Plug-In . SVG Version: 6.00 Build 0)  -->
<!DOCTYPE svg PUBLIC "-//W3C//DTD SVG 1.1//EN" "http://www.w3.org/Graphics/SVG/1.1/DTD/svg11.dtd">
<svg version="1.1" id="レイヤー_1" xmlns="http://www.w3.org/2000/svg" xmlns:xlink="http://www.w3.org/1999/xlink" x="0px"
	 y="0px" width="1000px" height="1000px" viewBox="0 0 1000 1000" enable-background="new 0 0 1000 1000" xml:space="preserve">
<path d="M1000,189.671c-36.781,16.314-76.33,27.352-117.824,32.328c42.355-25.406,74.871-65.666,90.211-113.596
	c-39.662,23.535-83.551,40.635-130.283,49.838c-37.453-39.885-90.771-64.842-149.775-64.842
	c-113.297,0-205.152,91.932-205.152,205.303c0,16.088,1.814,31.729,5.313,46.77c-170.523-8.568-321.684-90.285-422.877-214.506
	c-17.66,30.344-27.781,65.59-27.781,103.23c0,71.203,36.219,134.063,91.277,170.842c-33.637-1.047-65.273-10.289-92.941-25.668
	c0,0.861,0,1.723,0,2.582c0,99.49,70.717,182.441,164.574,201.299c-17.23,4.715-35.34,7.221-54.047,7.221
	c-13.227,0-26.08-1.309-38.613-3.703c26.115,81.566,101.883,140.908,191.662,142.592c-70.229,55.039-158.68,87.854-254.803,87.854
	c-16.557,0-32.889-0.973-48.939-2.844c90.789,58.219,198.641,92.23,314.5,92.23c377.379,0,583.729-312.836,583.729-584.102
	c0-8.906-0.225-17.773-0.6-26.566C937.701,267.011,972.498,230.829,1000,189.671z"/>
</svg>
