<?xml version="1.0" encoding="utf-8"?>
<!-- Generator: Adobe Illustrator 16.0.0, SVG Export Plug-In . SVG Version: 6.00 Build 0)  -->
<!DOCTYPE svg PUBLIC "-//W3C//DTD SVG 1.1//EN" "http://www.w3.org/Graphics/SVG/1.1/DTD/svg11.dtd">
<svg version="1.1" id="レイヤー_1" xmlns="http://www.w3.org/2000/svg" xmlns:xlink="http://www.w3.org/1999/xlink" x="0px"
	 y="0px" width="1000px" height="1000px" viewBox="0 0 1000 1000" enable-background="new 0 0 1000 1000" xml:space="preserve">
<path d="M979.121,257.765c-11.523-43.293-45.387-77.416-88.416-88.979C812.691,147.722,500,147.722,500,147.722
	s-312.729,0-390.705,21.064c-43.029,11.563-76.93,45.686-88.416,88.979C0,336.228,0,499.999,0,499.999s0,163.773,20.879,242.273
	c11.486,43.33,45.387,77.416,88.416,89.016C187.271,852.278,500,852.278,500,852.278s312.691,0,390.705-20.99
	c43.029-11.6,76.893-45.686,88.416-89.016C1000,663.772,1000,499.999,1000,499.999S1000,336.228,979.121,257.765z M397.703,648.731
	V351.343l261.393,148.695L397.703,648.731z"/>
</svg>
